<?xml version="1.0" encoding="iso-8859-1"?>
<!-- Generator: Adobe Illustrator 19.0.0, SVG Export Plug-In . SVG Version: 6.00 Build 0)  -->
<svg version="1.1" id="Layer_1" xmlns="http://www.w3.org/2000/svg" xmlns:xlink="http://www.w3.org/1999/xlink" x="0px" y="0px"
	 viewBox="0 0 512.001 512.001" style="enable-background:new 0 0 512.001 512.001;" xml:space="preserve">
<circle style="fill:#6A563D;" cx="207.244" cy="165.493" r="31.766"/>
<circle style="fill:#5F4D37;" cx="256.009" cy="165.493" r="31.766"/>
<circle style="fill:#6A563D;" cx="306.237" cy="165.493" r="31.766"/>
<circle style="fill:#957856;" cx="180.651" cy="192.116" r="31.766"/>
<circle style="fill:#806749;" cx="230.89" cy="192.116" r="31.766"/>
<circle style="fill:#957856;" cx="281.118" cy="192.116" r="31.766"/>
<circle style="fill:#806749;" cx="331.356" cy="192.116" r="31.766"/>
<path style="fill:#FF728B;" d="M480.248,346.587c-18.412-81.661-84.902-147.923-87.75-150.73
	c-4.684-4.615-10.996-7.202-17.572-7.202H137.078c-6.577,0-12.888,2.587-17.572,7.202c-2.848,2.807-69.337,69.068-87.75,150.73
	H480.248z"/>
<g>
	<path style="fill:#FF3F62;" d="M194.859,195.857c4.684-4.615,10.995-7.202,17.572-7.202h-75.352
		c-6.577,0-12.888,2.587-17.572,7.202c-2.848,2.807-69.338,69.068-87.751,150.73h75.352
		C125.521,264.925,192.009,198.664,194.859,195.857z"/>
	<path style="fill:#FF3F62;" d="M406.71,270.188c-2.473,0-4.906-1.167-6.43-3.348c-14.785-21.153-28.464-36.005-33.659-41.408
		c-2.999-3.12-2.901-8.081,0.219-11.08c3.119-2.999,8.08-2.902,11.08,0.218c5.449,5.669,19.788,21.234,35.206,43.291
		c2.479,3.547,1.613,8.433-1.934,10.913C409.826,269.729,408.26,270.188,406.71,270.188z"/>
	<path style="fill:#FF3F62;" d="M431.465,311.537c-2.881,0-5.653-1.593-7.023-4.349c-3.006-6.044-6.368-12.22-9.989-18.358
		c-2.2-3.727-0.961-8.533,2.766-10.732c3.725-2.196,8.533-0.961,10.732,2.767c3.811,6.458,7.352,12.966,10.523,19.344
		c1.928,3.874,0.349,8.579-3.527,10.506C433.829,311.273,432.637,311.537,431.465,311.537z"/>
</g>
<path style="fill:#BDDBFF;" d="M296.591,233.03c-11.022-11.022-28.891-11.022-39.913,0c-0.232,0.232-0.45,0.472-0.673,0.709
	c-0.223-0.238-0.441-0.478-0.673-0.709c-11.022-11.022-28.891-11.022-39.913,0c-5.945,5.945-8.678,13.883-8.209,21.665
	c0,0-0.049,32.812,48.794,58.987c0,0,48.794-25.984,48.794-58.987C304.8,246.9,302.537,238.976,296.591,233.03z"/>
<path style="fill:#9BC9FF;" d="M232.324,254.695c-0.469-7.781,2.262-15.719,8.209-21.665c2.225-2.225,4.73-3.992,7.4-5.318
	c-10.559-5.246-23.716-3.479-32.514,5.318c-5.945,5.945-8.678,13.883-8.209,21.665c0,0-0.049,32.812,48.794,58.987
	c0,0,8.288-4.781,12.447-7.817C232.288,281.364,232.324,254.695,232.324,254.695z"/>
<path style="fill:#E0E0E2;" d="M491.972,378.273H20.03C9.013,378.273,0,369.26,0,358.245l0,0c0-11.016,9.013-20.03,20.03-20.03
	h471.942c11.016,0,20.03,9.013,20.03,20.03l0,0C512,369.26,502.987,378.273,491.972,378.273z"/>
<path style="fill:#C6C5CA;" d="M98.22,358.245L98.22,358.245c0-11.016,9.013-20.03,20.03-20.03H20.03
	c-11.016,0-20.03,9.013-20.03,20.03l0,0c0,11.016,9.013,20.03,20.03,20.03h98.22C107.233,378.273,98.22,369.26,98.22,358.245z"/>
<g>
</g>
<g>
</g>
<g>
</g>
<g>
</g>
<g>
</g>
<g>
</g>
<g>
</g>
<g>
</g>
<g>
</g>
<g>
</g>
<g>
</g>
<g>
</g>
<g>
</g>
<g>
</g>
<g>
</g>
</svg>
